<?xml version="1.0" standalone="no"?>
<!DOCTYPE svg PUBLIC "-//W3C//DTD SVG 20010904//EN"
 "http://www.w3.org/TR/2001/REC-SVG-20010904/DTD/svg10.dtd">
<svg version="1.0" xmlns="http://www.w3.org/2000/svg"
 width="1280.000000pt" height="640.000000pt" viewBox="0 0 1280.000000 640.000000"
 preserveAspectRatio="xMidYMid meet">
<g transform="translate(0.000000,640.000000) scale(0.100000,-0.100000)"
fill="#3d1d4e" stroke="none">
<path d="M1864 6330 c-127 -11 -149 -24 -223 -130 -63 -92 -67 -95 -146 -104
-150 -18 -214 -44 -278 -115 -46 -51 -105 -169 -163 -322 -62 -167 -187 -607
-240 -849 -24 -113 -48 -208 -53 -213 -5 -5 -98 -8 -207 -8 -110 1 -216 -3
-238 -8 -47 -11 -106 -67 -146 -136 -88 -155 -153 -515 -168 -925 -12 -341 69
-877 154 -1024 54 -91 83 -127 119 -142 32 -13 32 -14 39 -96 10 -125 26 -237
43 -298 13 -46 26 -66 82 -120 111 -108 330 -267 416 -302 68 -28 77 -29 93
-15 15 13 30 13 146 -9 72 -13 134 -30 138 -37 5 -6 6 -28 2 -47 -20 -100 -1
-405 31 -475 7 -16 15 -43 18 -60 5 -28 26 -81 46 -115 5 -8 19 -39 32 -68 12
-29 29 -58 36 -64 8 -6 20 -25 27 -42 25 -59 253 -292 314 -322 19 -9 42 -24
51 -33 10 -10 40 -28 67 -40 27 -12 56 -27 64 -32 34 -20 87 -41 120 -46 19
-4 45 -12 57 -20 11 -8 52 -18 90 -23 37 -5 91 -13 118 -17 97 -15 379 2 408
25 7 5 31 12 55 15 41 5 73 18 202 81 99 49 155 83 186 115 17 17 34 31 38 31
11 0 96 71 96 81 0 4 25 32 55 63 30 30 55 61 55 69 0 8 10 22 21 33 26 23 69
89 69 106 0 7 14 33 30 57 16 24 33 60 36 80 4 20 15 52 25 71 11 20 21 58 25
85 3 28 9 61 14 75 5 14 11 38 15 53 l6 29 217 -7 c166 -5 223 -11 241 -22 19
-12 28 -13 46 -3 18 10 62 10 202 1 98 -6 302 -18 453 -27 267 -16 275 -17
308 -42 50 -38 92 -33 315 43 193 66 247 92 247 121 0 7 10 16 23 18 26 5
1169 25 1847 33 l475 4 98 -110 c94 -104 102 -111 153 -122 52 -12 56 -11 114
18 l59 31 258 -13 c142 -8 368 -19 503 -25 135 -6 272 -13 306 -16 l60 -5 17
-52 c9 -29 21 -70 28 -92 6 -22 21 -58 34 -80 12 -22 25 -52 29 -67 3 -14 21
-46 40 -71 19 -24 37 -54 40 -65 4 -12 27 -42 52 -67 24 -25 44 -49 44 -53 0
-9 82 -92 91 -92 4 0 31 -22 59 -50 28 -27 57 -50 65 -50 7 0 26 -11 42 -24
16 -13 46 -33 68 -44 130 -64 171 -82 192 -82 13 0 34 -7 46 -15 12 -8 54 -19
92 -24 39 -6 95 -14 125 -19 99 -14 374 3 403 26 7 5 31 12 55 15 24 3 67 17
95 30 29 14 67 30 86 36 19 6 48 22 65 34 17 13 48 32 69 42 21 10 51 30 68
46 16 15 45 38 64 49 19 12 46 35 60 53 14 18 30 37 36 42 45 43 73 74 86 100
9 17 26 40 38 52 12 13 33 44 45 70 13 27 27 55 31 63 39 70 49 92 49 109 0
11 9 35 20 54 11 18 24 60 29 93 5 32 14 79 21 103 6 24 10 60 10 80 -1 20 2
67 6 104 l7 68 81 -3 81 -3 0 -45 c0 -60 12 -61 154 -15 231 75 270 115 416
434 67 148 73 172 52 205 -19 28 -21 82 -18 396 l3 225 30 32 31 32 -21 44
c-38 80 -110 123 -322 193 -63 20 -116 37 -116 38 -1 1 5 33 13 71 24 114 -5
347 -57 447 -10 20 -24 56 -30 80 -7 23 -21 55 -31 69 -10 15 -19 34 -19 43 0
22 -116 143 -164 171 -159 93 -1326 314 -2351 446 -139 18 -199 20 -327 16
l-157 -6 -49 52 c-26 29 -113 122 -192 207 -367 398 -1381 1378 -1428 1381 -9
1 -27 0 -39 -1 -15 -1 -23 4 -23 14 0 9 7 16 15 16 26 0 17 14 -28 41 -106 67
-201 98 -382 125 -64 10 -117 23 -128 32 -15 13 -22 14 -38 4 -15 -10 -53 -10
-167 -2 -81 5 -184 10 -228 10 -81 0 -82 0 -158 50 -101 66 -176 103 -260 129
-87 27 -270 36 -1141 56 -684 16 -2936 19 -3111 5z m3211 -110 c548 -12 632
-18 712 -54 52 -24 72 -56 36 -56 -10 0 -139 5 -288 10 -658 24 -1626 40
-2437 40 -516 0 -879 4 -882 9 -11 17 7 43 38 58 27 12 195 13 1176 9 630 -3
1370 -10 1645 -16z m-111 -4915 c19 -20 30 -55 19 -65 -8 -8 -505 43 -547 56
-49 16 27 23 266 23 207 1 249 -1 262 -14z m3852 6 c10 -9 279 -32 402 -35 60
-1 76 2 86 17 11 14 30 17 124 17 126 0 126 1 115 -87 l-6 -55 -161 7 c-89 3
-226 11 -306 16 -80 5 -228 9 -330 9 -102 0 -191 4 -197 8 -22 14 24 90 61
101 40 12 199 14 212 2z m-6920 -16 c22 -6 34 -39 34 -94 1 -41 44 -153 79
-204 37 -54 37 -57 10 -91 -27 -35 -53 -33 -82 7 -106 140 -160 415 -77 393 8
-3 25 -7 36 -11z m8346 -17 c4 -7 7 -35 6 -63 -3 -50 -3 -50 -39 -53 -49 -4
-69 17 -69 73 0 57 19 77 62 64 17 -5 35 -14 40 -21z m1124 -3 c9 -35 -13
-159 -40 -224 -36 -89 -92 -171 -117 -171 -22 0 -58 36 -59 58 0 8 15 39 34
70 41 67 64 134 74 217 7 57 9 60 42 71 42 14 58 9 66 -21z m-8339 -151 c-7
-41 -50 -138 -90 -202 -34 -53 -66 -57 -96 -10 -18 30 -19 35 -5 53 19 26 80
148 87 175 4 17 13 20 57 20 l53 0 -6 -36z m7317 -149 c20 -31 20 -45 -3 -72
-29 -35 -56 -29 -91 21 -44 65 -41 76 24 76 46 0 56 -4 70 -25z m-7700 -216
c24 -40 17 -53 -41 -74 -93 -33 -306 -29 -375 7 -23 11 -22 47 1 77 19 24 20
25 84 13 84 -16 179 -15 242 2 60 16 66 14 89 -25z m8320 6 c23 -35 20 -53
-11 -69 -75 -37 -228 -47 -344 -20 -80 18 -90 31 -64 81 18 32 22 34 55 29 90
-15 227 -17 275 -3 59 15 68 13 89 -18z"/>
</g>
</svg>
