<?xml version="1.0" standalone="no"?>
<!DOCTYPE svg PUBLIC "-//W3C//DTD SVG 20010904//EN"
 "http://www.w3.org/TR/2001/REC-SVG-20010904/DTD/svg10.dtd">
<svg version="1.0" xmlns="http://www.w3.org/2000/svg"
 width="1280.000000pt" height="776.000000pt" viewBox="0 0 1280.000000 776.000000"
 preserveAspectRatio="xMidYMid meet">
<g transform="translate(0.000000,776.000000) scale(0.100000,-0.100000)"
fill="#3d1d4e" stroke="none">
<path d="M2 4398 l3 -3362 735 -128 735 -128 866 0 866 0 6 83 c11 150 71 313
162 442 59 83 189 204 272 254 131 77 321 131 468 131 147 0 337 -54 468 -131
83 -50 213 -171 272 -254 91 -129 151 -292 162 -443 l6 -82 2818 0 2818 0 6
58 c20 175 59 295 137 423 121 197 332 348 565 406 102 25 323 22 428 -6 372
-98 646 -423 681 -806 l7 -75 53 0 53 0 25 54 c68 143 124 368 150 601 44 385
45 432 15 608 -69 396 -303 774 -668 1079 -47 39 -448 432 -891 873 -932 927
-1036 1019 -1300 1149 l-104 51 -841 3 c-826 2 -841 2 -873 -18 -18 -11 -37
-32 -42 -46 -6 -15 -10 -298 -10 -734 0 -636 -2 -708 -16 -714 -27 -10 -89 -7
-102 6 -9 9 -12 476 -12 2040 l0 2028 -3960 0 -3960 0 2 -3362z m9695 460 c71
-22 151 -59 211 -100 102 -69 670 -596 952 -884 206 -210 244 -261 237 -318
-6 -44 -43 -88 -99 -117 -36 -18 -76 -19 -1219 -19 l-1181 0 -49 26 c-54 30
-91 77 -114 145 -13 39 -15 122 -13 600 l3 556 28 36 c31 41 88 74 150 87 23
5 267 7 542 6 417 -2 509 -5 552 -18z m-1658 -1272 c8 -9 10 -200 9 -697 l-3
-684 -60 0 -60 0 -3 685 c-2 635 -1 686 15 698 22 16 88 15 102 -2z"/>
<path d="M3985 1544 c-85 -20 -117 -30 -169 -51 -313 -129 -513 -475 -467
-806 47 -336 280 -587 616 -663 363 -83 758 146 880 510 71 212 47 453 -66
642 -70 118 -227 259 -344 309 -107 46 -159 57 -295 60 -74 2 -144 2 -155 -1z
m290 -423 c78 -36 144 -101 182 -179 25 -51 28 -68 28 -157 0 -88 -3 -107 -27
-157 -137 -293 -538 -298 -680 -10 -31 62 -33 74 -33 167 0 89 3 106 28 157
49 101 147 181 254 208 69 17 177 5 248 -29z"/>
<path d="M11404 1535 c-139 -30 -262 -96 -364 -195 -169 -164 -249 -367 -237
-600 10 -201 79 -352 227 -500 128 -129 235 -185 430 -225 94 -19 126 -19 220
0 107 22 164 42 250 86 414 213 540 750 266 1133 -104 146 -257 249 -440 296
-93 24 -256 26 -352 5z m320 -408 c167 -77 257 -262 212 -437 -39 -151 -150
-252 -309 -281 -56 -10 -76 -10 -134 5 -184 45 -295 184 -296 371 -1 69 3 89
29 145 52 110 124 175 233 212 78 25 190 19 265 -15z"/>
</g>
</svg>
