<?xml version="1.0" standalone="no"?>
<!DOCTYPE svg PUBLIC "-//W3C//DTD SVG 20010904//EN"
 "http://www.w3.org/TR/2001/REC-SVG-20010904/DTD/svg10.dtd">
<svg version="1.0" xmlns="http://www.w3.org/2000/svg"
 width="1280.000000pt" height="720.000000pt" viewBox="0 0 1280.000000 720.000000"
 preserveAspectRatio="xMidYMid meet">
<g transform="translate(0.000000,720.000000) scale(0.100000,-0.100000)"
fill="#3d1d4e" stroke="none">
<path d="M5762 5074 c-34 -20 -51 -25 -79 -19 -24 4 -42 1 -59 -10 -43 -28
-119 -205 -112 -262 2 -21 15 -36 49 -58 38 -24 48 -37 53 -66 9 -54 45 -85
213 -184 84 -50 153 -95 153 -101 0 -7 -11 -19 -25 -28 -76 -50 -99 -115 -67
-189 33 -74 135 -135 243 -144 48 -5 59 -9 59 -23 0 -16 -16 -18 -152 -24 -84
-3 -586 -8 -1115 -10 l-962 -5 -35 49 c-42 59 -44 67 -13 81 32 14 52 52 67
124 16 78 7 217 -20 288 -21 55 -89 162 -119 184 -9 7 -45 13 -82 13 -61 0
-67 -2 -96 -32 -87 -90 -114 -255 -68 -405 9 -27 -6 -29 -85 -12 -61 13 -60
-7 -6 204 47 185 82 393 68 407 -6 6 -37 13 -69 17 l-58 6 -3 37 c-3 34 -6 38
-38 44 -61 11 -123 -1 -154 -31 -46 -44 -60 -85 -174 -497 -12 -43 -26 -82
-31 -87 -6 -5 -91 -16 -190 -25 -225 -20 -364 -44 -629 -105 -159 -37 -215
-47 -231 -39 -16 7 -100 -4 -327 -46 -291 -52 -627 -107 -878 -141 -63 -9
-195 -19 -293 -22 -98 -3 -179 -8 -181 -12 -2 -3 2 -42 10 -86 12 -66 13 -112
4 -260 -6 -99 -16 -220 -21 -270 l-11 -90 -105 -160 -105 -159 7 -91 c10 -142
44 -393 61 -459 9 -33 36 -110 60 -170 24 -61 44 -117 44 -126 0 -8 -12 -32
-26 -53 -14 -21 -23 -44 -21 -51 9 -23 226 -56 535 -81 290 -24 376 -20 388
18 6 19 12 19 97 14 49 -3 94 -10 99 -15 6 -6 25 -46 43 -90 38 -94 121 -223
194 -304 118 -131 312 -246 497 -295 87 -22 119 -26 254 -26 135 0 167 4 254
26 184 49 376 162 497 294 54 60 140 185 179 262 l22 44 96 -7 c80 -6 99 -10
111 -26 13 -20 39 -20 1845 -20 1007 0 2253 3 2770 7 899 6 939 7 944 25 4 16
17 18 132 18 l127 0 53 -83 c244 -375 712 -547 1145 -422 245 71 464 239 588
450 22 39 47 76 56 83 10 8 56 12 149 12 127 0 134 -1 139 -21 l6 -21 512 4
c556 3 545 2 545 59 0 35 -4 37 -79 47 -34 5 -64 12 -68 15 -3 4 0 35 8 69 14
61 15 62 57 73 44 10 48 25 7 25 -35 0 -43 19 -36 88 8 72 17 82 80 82 24 0
73 5 107 11 60 10 64 13 76 47 10 27 13 114 12 332 -1 424 -17 527 -101 620
-61 68 -220 172 -356 233 -679 302 -2080 509 -3911 577 -260 10 -292 13 -313
30 -43 33 -135 62 -218 67 -76 5 -86 9 -190 68 -471 268 -1344 687 -1590 765
-22 7 -49 21 -60 31 -22 20 -68 39 -93 39 -9 0 -36 -12 -60 -26z m-3815 -3200
c62 -39 -58 -88 -158 -64 -53 13 -124 64 -113 82 9 15 244 -1 271 -18z m918
-49 c0 -18 -68 -28 -112 -16 -68 19 -52 32 35 29 43 -2 77 -7 77 -13z m7209
-10 c63 -19 209 -19 272 0 45 14 50 13 62 -3 9 -11 12 -34 8 -71 -7 -72 -48
-137 -110 -176 -42 -25 -59 -30 -115 -30 -116 0 -199 69 -222 186 -8 39 -8 62
0 82 12 32 32 34 105 12z m-7904 -76 c78 -24 209 -27 288 -5 49 13 53 13 62
-4 17 -31 11 -93 -14 -146 -92 -199 -378 -166 -426 49 -10 48 1 127 18 127 4
0 36 -9 72 -21z"/>
</g>
</svg>
