<?xml version="1.0" standalone="no"?>
<!DOCTYPE svg PUBLIC "-//W3C//DTD SVG 20010904//EN"
 "http://www.w3.org/TR/2001/REC-SVG-20010904/DTD/svg10.dtd">
<svg version="1.0" xmlns="http://www.w3.org/2000/svg"
 width="640.000000pt" height="1280.000000pt" viewBox="0 0 640.000000 1280.000000"
 preserveAspectRatio="xMidYMid meet">
<g transform="translate(0.000000,1280.000000) scale(0.100000,-0.100000)"
fill="#000000" stroke="none">
<path d="M3023 12785 c-148 -27 -275 -78 -400 -161 -406 -270 -567 -793 -382
-1248 93 -230 295 -441 522 -546 269 -125 604 -124 872 4 526 252 743 873 485
1391 -201 406 -659 640 -1097 560z"/>
<path d="M2175 10535 c-257 -48 -477 -209 -595 -436 -41 -80 -63 -150 -390
-1284 -214 -742 -397 -1376 -530 -1835 -258 -890 -270 -935 -270 -1020 0 -145
61 -274 163 -344 77 -53 130 -69 227 -70 77 -1 92 2 152 32 78 38 155 117 197
201 16 31 115 331 220 666 106 336 280 889 388 1230 107 341 201 630 209 643
8 12 21 22 29 22 40 0 42 -18 64 -790 l21 -745 -425 -3187 c-234 -1753 -425
-3218 -425 -3255 1 -119 59 -226 162 -296 96 -65 126 -69 495 -65 l328 3 60
28 c79 37 156 114 190 189 21 46 32 101 50 246 13 103 92 727 175 1387 83 660
182 1448 220 1750 218 1725 300 2384 300 2400 0 10 2 16 5 13 6 -5 8 -24 185
-1433 77 -616 170 -1349 205 -1630 35 -280 125 -994 200 -1586 74 -592 141
-1095 149 -1117 34 -94 109 -176 205 -221 l56 -26 355 0 355 0 67 33 c111 54
187 156 209 279 10 53 -27 340 -419 3283 l-430 3225 9 270 c5 149 15 483 23
744 16 506 17 512 65 496 24 -7 -14 108 471 -1435 183 -580 347 -1084 364
-1120 40 -84 126 -172 203 -208 50 -23 70 -27 143 -26 103 1 178 27 253 88 95
77 157 239 142 371 -4 33 -68 269 -142 525 -268 927 -414 1435 -563 1950 -384
1329 -440 1520 -464 1574 -86 193 -268 365 -467 440 -150 56 -149 56 -1178 55
-732 -1 -962 -4 -1016 -14z"/>
</g>
</svg>
