<?xml version="1.0" standalone="no"?>
<!DOCTYPE svg PUBLIC "-//W3C//DTD SVG 20010904//EN"
 "http://www.w3.org/TR/2001/REC-SVG-20010904/DTD/svg10.dtd">
<svg version="1.0" xmlns="http://www.w3.org/2000/svg"
 width="640.000000pt" height="1280.000000pt" viewBox="0 0 640.000000 1280.000000"
 preserveAspectRatio="xMidYMid meet">
<metadata>
Created by potrace 1.15, written by Peter Selinger 2001-2017
</metadata>
<g transform="translate(0.000000,1280.000000) scale(0.100000,-0.100000)"
fill="#000000" stroke="none">
<path d="M3032 12785 c-235 -43 -425 -145 -587 -316 -394 -416 -375 -1077 43
-1470 263 -249 634 -341 992 -248 109 28 281 117 377 194 326 261 464 697 348
1099 -95 329 -342 588 -661 697 -164 56 -356 72 -512 44z"/>
<path d="M1700 10489 c-171 -12 -321 -54 -482 -134 -420 -210 -695 -620 -738
-1099 -8 -84 -10 -633 -8 -1776 l3 -1655 22 -65 c41 -120 122 -213 229 -262
41 -20 66 -23 159 -23 101 0 115 2 170 29 113 56 196 165 227 298 10 41 13
404 13 1650 l0 1598 248 0 247 0 0 -4257 c0 -3707 2 -4267 15 -4328 56 -268
297 -464 571 -465 79 0 200 31 277 72 90 48 195 156 241 248 70 144 66 -51 66
2698 l0 2482 245 0 245 0 0 -2487 c1 -2740 -4 -2551 65 -2689 66 -134 180
-234 333 -292 58 -22 82 -26 187 -26 105 0 129 4 187 26 153 58 267 158 332
290 71 144 66 -238 66 4471 l0 4257 245 0 245 0 0 -1588 c0 -1098 3 -1607 11
-1648 26 -141 106 -252 227 -311 71 -36 81 -38 166 -37 68 0 104 6 144 21 142
57 237 186 262 359 13 95 13 3229 0 3384 -54 610 -476 1102 -1055 1232 -64 14
-139 21 -260 24 -305 7 -2807 10 -2905 3z"/>
</g>
</svg>
